{"glyphs":{"0":{"ha":1017,"x_min":17,"x_max":1049,"o":"m 753 610 l 694 678 l 422 678 l 347 610 l 313 339 l 372 271 l 644 271 l 720 339 l 753 610 m 930 949 l 1049 814 l 966 136 l 814 0 l 136 0 l 17 136 l 100 814 l 252 949 l 930 949 z "},"1":{"ha":543,"x_min":83,"x_max":574,"o":"m 219 678 l 83 678 l 117 949 l 456 949 l 574 814 l 475 0 l 203 0 l 279 610 l 219 678 z "},"2":{"ha":1017,"x_min":0,"x_max":1049,"o":"m 983 271 l 949 0 l 0 0 l 58 475 l 211 610 l 686 610 l 724 644 l 694 678 l 83 678 l 117 949 l 930 949 l 1049 814 l 1008 475 l 855 339 l 380 339 l 304 271 l 983 271 z "},"3":{"ha":1017,"x_min":0,"x_max":1049,"o":"m 694 678 l 83 678 l 117 949 l 930 949 l 1049 814 l 1025 610 l 872 475 l 991 339 l 966 136 l 814 0 l 0 0 l 33 271 l 644 271 l 682 305 l 652 339 l 41 339 l 75 610 l 686 610 l 724 644 l 694 678 z "},"4":{"ha":1017,"x_min":33,"x_max":1000,"o":"m 932 407 l 1000 407 l 966 136 l 899 136 l 882 0 l 610 0 l 627 136 l 153 136 l 33 271 l 117 949 l 388 949 l 330 475 l 389 407 l 661 407 l 727 949 l 998 949 l 932 407 z "},"5":{"ha":1017,"x_min":0,"x_max":1066,"o":"m 1066 949 l 1033 678 l 355 678 l 414 610 l 889 610 l 1008 475 l 966 136 l 814 0 l 0 0 l 33 271 l 644 271 l 682 305 l 652 339 l 177 339 l 58 475 l 117 949 l 1066 949 z "},"6":{"ha":1017,"x_min":17,"x_max":1066,"o":"m 1066 949 l 1033 678 l 422 678 l 347 610 l 889 610 l 1008 475 l 966 136 l 814 0 l 136 0 l 17 136 l 100 814 l 252 949 l 1066 949 m 372 271 l 644 271 l 682 305 l 652 339 l 380 339 l 342 305 l 372 271 z "},"7":{"ha":1017,"x_min":0,"x_max":1066,"o":"m 524 678 l 83 678 l 117 949 l 1066 949 l 1037 712 l 237 0 l 0 0 l 29 237 l 524 678 z "},"8":{"ha":1017,"x_min":17,"x_max":1049,"o":"m 644 271 l 720 339 l 313 339 l 372 271 l 644 271 m 422 678 l 347 610 l 753 610 l 694 678 l 422 678 m 930 949 l 1049 814 l 966 136 l 814 0 l 136 0 l 17 136 l 100 814 l 252 949 l 930 949 z "},"9":{"ha":1017,"x_min":0,"x_max":1049,"o":"m 0 0 l 33 271 l 644 271 l 720 339 l 177 339 l 58 475 l 100 814 l 252 949 l 930 949 l 1049 814 l 966 136 l 814 0 l 0 0 m 694 678 l 422 678 l 385 644 l 414 610 l 686 610 l 724 644 l 694 678 z "},"\u0000":{"ha":0,"x_min":0,"x_max":0,"o":""}," ":{"ha":271,"x_min":0,"x_max":0,"o":""},"!":{"ha":339,"x_min":0,"x_max":388,"o":"m 271 0 l 0 0 l 33 271 l 304 271 l 271 0 m 313 339 l 41 339 l 117 949 l 388 949 l 313 339 z "},"\"":{"ha":678,"x_min":66,"x_max":727,"o":"m 338 543 l 66 543 l 117 949 l 388 949 l 338 543 m 677 543 l 406 543 l 456 949 l 727 949 l 677 543 z "},"#":{"ha":1017,"x_min":17,"x_max":1049,"o":"m 507 814 l 642 814 l 659 949 l 930 949 l 913 814 l 1049 814 l 1016 543 l 880 543 l 864 407 l 1000 407 l 966 136 l 831 136 l 814 0 l 543 0 l 559 136 l 424 136 l 407 0 l 136 0 l 153 136 l 17 136 l 50 407 l 186 407 l 202 543 l 66 543 l 100 814 l 235 814 l 252 949 l 524 949 l 507 814 m 609 543 l 473 543 l 457 407 l 593 407 l 609 543 z "},"$":{"ha":1017,"x_min":-102,"x_max":1202,"o":"m 727 949 l 1202 949 l 897 678 l 422 678 l 385 644 l 414 610 l 889 610 l 1008 475 l 966 136 l 814 0 l 610 0 l 593 -136 l 322 -136 l 339 0 l 136 0 l -102 271 l 644 271 l 682 305 l 652 339 l 177 339 l 58 475 l 100 814 l 252 949 l 456 949 l 472 1085 l 743 1085 l 727 949 z "},"%":{"ha":1017,"x_min":0,"x_max":1066,"o":"m 192 0 l 0 0 l 24 192 l 874 949 l 1066 949 l 1042 758 l 192 0 m 949 0 l 678 0 l 711 271 l 983 271 l 949 0 m 355 678 l 83 678 l 117 949 l 388 949 l 355 678 z "},"&":{"ha":1017,"x_min":17,"x_max":1025,"o":"m 915 271 l 983 271 l 949 0 l 136 0 l 17 136 l 41 339 l 194 475 l 75 610 l 100 814 l 252 949 l 659 949 l 626 678 l 422 678 l 385 644 l 414 610 l 686 610 l 694 678 l 965 678 l 957 610 l 1025 610 l 991 339 l 923 339 l 915 271 m 652 339 l 380 339 l 342 305 l 372 271 l 644 271 l 652 339 z "},"'":{"ha":339,"x_min":66,"x_max":388,"o":"m 338 543 l 66 543 l 117 949 l 388 949 l 338 543 z "},"(":{"ha":543,"x_min":8,"x_max":600,"o":"m 600 1017 l 566 746 l 431 746 l 355 678 l 304 271 l 364 203 l 500 203 l 467 -68 l 127 -68 l 8 68 l 109 882 l 260 1017 l 600 1017 z "},")":{"ha":543,"x_min":-8,"x_max":583,"o":"m -8 -68 l 25 203 l 161 203 l 237 271 l 287 678 l 227 746 l 92 746 l 125 1017 l 464 1017 l 583 882 l 483 68 l 331 -68 l -8 -68 z "},"*":{"ha":746,"x_min":46,"x_max":782,"o":"m 307 845 l 320 949 l 591 949 l 578 845 l 675 897 l 782 663 l 685 610 l 769 558 l 605 323 l 521 376 l 508 271 l 237 271 l 250 376 l 153 323 l 46 558 l 143 610 l 59 663 l 223 897 l 307 845 z "},"+":{"ha":746,"x_min":41,"x_max":753,"o":"m 245 339 l 41 339 l 75 610 l 279 610 l 303 814 l 574 814 l 550 610 l 753 610 l 720 339 l 516 339 l 492 136 l 220 136 l 245 339 z "},",":{"ha":339,"x_min":-33,"x_max":304,"o":"m 271 0 l -33 -271 l 33 271 l 304 271 l 271 0 z "},"-":{"ha":746,"x_min":41,"x_max":753,"o":"m 41 339 l 75 610 l 753 610 l 720 339 l 41 339 z "},".":{"ha":339,"x_min":0,"x_max":304,"o":"m 271 0 l 0 0 l 33 271 l 304 271 l 271 0 z "},"/":{"ha":1017,"x_min":0,"x_max":1066,"o":"m 192 0 l 0 0 l 24 192 l 874 949 l 1066 949 l 1042 758 l 192 0 z "},":":{"ha":339,"x_min":0,"x_max":357,"o":"m 271 0 l 0 0 l 33 271 l 304 271 l 271 0 m 323 423 l 52 423 l 85 694 l 357 694 l 323 423 z "},";":{"ha":339,"x_min":-33,"x_max":357,"o":"m 271 0 l -33 -271 l 33 271 l 304 271 l 271 0 m 323 423 l 52 423 l 85 694 l 357 694 l 323 423 z "},"<":{"ha":678,"x_min":50,"x_max":727,"o":"m 465 475 l 644 271 l 610 0 l 407 0 l 50 407 l 66 543 l 524 949 l 727 949 l 694 678 l 465 475 z "},"=":{"ha":746,"x_min":21,"x_max":774,"o":"m 62 509 l 96 780 l 774 780 l 741 509 l 62 509 m 21 170 l 54 441 l 732 441 l 699 170 l 21 170 z "},">":{"ha":678,"x_min":0,"x_max":677,"o":"m 262 475 l 83 678 l 117 949 l 320 949 l 677 543 l 661 407 l 203 0 l 0 0 l 33 271 l 262 475 z "},"?":{"ha":1017,"x_min":83,"x_max":1049,"o":"m 694 678 l 83 678 l 117 949 l 930 949 l 1049 814 l 1008 475 l 855 339 l 245 339 l 279 610 l 686 610 l 724 644 l 694 678 m 475 0 l 203 0 l 237 271 l 508 271 l 475 0 z "},"@":{"ha":1017,"x_min":17,"x_max":1049,"o":"m 372 271 l 915 271 l 882 0 l 136 0 l 17 136 l 100 814 l 252 949 l 930 949 l 1049 814 l 991 339 l 380 339 l 414 610 l 753 610 l 694 678 l 422 678 l 347 610 l 313 339 l 372 271 z "},"A":{"ha":1017,"x_min":17,"x_max":1049,"o":"m 422 678 l 347 610 l 330 475 l 736 475 l 753 610 l 694 678 l 422 678 m 100 814 l 252 949 l 930 949 l 1049 814 l 949 0 l 678 0 l 703 203 l 296 203 l 254 -136 l 17 136 l 100 814 z "},"B":{"ha":1017,"x_min":0,"x_max":1049,"o":"m 355 678 l 347 610 l 686 610 l 724 644 l 694 678 l 355 678 m 313 339 l 304 271 l 644 271 l 682 305 l 652 339 l 313 339 m 0 0 l 117 949 l 930 949 l 1049 814 l 1025 610 l 872 475 l 991 339 l 966 136 l 814 0 l 0 0 z "},"C":{"ha":1017,"x_min":17,"x_max":1049,"o":"m 1025 610 l 745 543 l 753 610 l 694 678 l 422 678 l 347 610 l 313 339 l 372 271 l 644 271 l 720 339 l 728 407 l 991 339 l 966 136 l 814 0 l 136 0 l 17 136 l 100 814 l 252 949 l 930 949 l 1049 814 l 1025 610 z "},"D":{"ha":1017,"x_min":0,"x_max":1049,"o":"m 355 678 l 304 271 l 644 271 l 720 339 l 753 610 l 694 678 l 355 678 m 0 0 l 117 949 l 930 949 l 1049 814 l 966 136 l 814 0 l 0 0 z "},"E":{"ha":1017,"x_min":0,"x_max":1202,"o":"m 347 610 l 957 610 l 787 339 l 313 339 l 304 271 l 847 271 l 1085 0 l 0 0 l 117 949 l 1202 949 l 897 678 l 355 678 l 347 610 z "},"F":{"ha":1017,"x_min":0,"x_max":1066,"o":"m 347 610 l 957 610 l 923 339 l 313 339 l 271 0 l 0 0 l 117 949 l 1066 949 l 1033 678 l 355 678 l 347 610 z "},"G":{"ha":1017,"x_min":17,"x_max":1202,"o":"m 1202 949 l 897 678 l 422 678 l 347 610 l 313 339 l 372 271 l 644 271 l 720 339 l 448 339 l 482 610 l 1025 610 l 966 136 l 814 0 l 136 0 l 17 136 l 100 814 l 252 949 l 1202 949 z "},"H":{"ha":1017,"x_min":0,"x_max":1066,"o":"m 753 610 l 795 949 l 1066 949 l 949 0 l 678 0 l 720 339 l 313 339 l 271 0 l 0 0 l 117 949 l 388 949 l 347 610 l 753 610 z "},"I":{"ha":339,"x_min":0,"x_max":388,"o":"m 271 0 l 0 0 l 117 949 l 388 949 l 271 0 z "},"J":{"ha":1017,"x_min":17,"x_max":1066,"o":"m 136 0 l 17 136 l 41 339 l 313 339 l 372 271 l 644 271 l 720 339 l 795 949 l 1066 949 l 966 136 l 814 0 l 136 0 z "},"K":{"ha":1017,"x_min":17,"x_max":1170,"o":"m 339 551 l 786 949 l 1170 949 l 637 475 l 1053 0 l 669 0 l 320 398 l 254 -136 l 17 136 l 117 949 l 388 949 l 339 551 z "},"L":{"ha":1017,"x_min":0,"x_max":983,"o":"m 117 949 l 388 949 l 304 271 l 983 271 l 949 0 l 0 0 l 117 949 z "},"M":{"ha":1017,"x_min":17,"x_max":1066,"o":"m 347 610 l 254 -136 l 17 136 l 117 949 l 456 949 l 574 814 l 727 949 l 1066 949 l 949 0 l 678 0 l 753 610 l 724 644 l 686 610 l 610 0 l 339 0 l 414 610 l 385 644 l 347 610 z "},"N":{"ha":1017,"x_min":0,"x_max":1066,"o":"m 736 475 l 795 949 l 1066 949 l 949 0 l 746 0 l 330 475 l 271 0 l 0 0 l 117 949 l 320 949 l 736 475 z "},"O":{"ha":1017,"x_min":17,"x_max":1049,"o":"m 753 610 l 694 678 l 422 678 l 347 610 l 313 339 l 372 271 l 644 271 l 720 339 l 753 610 m 930 949 l 1049 814 l 966 136 l 814 0 l 136 0 l 17 136 l 100 814 l 252 949 l 930 949 z "},"P":{"ha":1017,"x_min":17,"x_max":1049,"o":"m 355 678 l 338 543 l 677 543 l 753 610 l 694 678 l 355 678 m 304 271 l 254 -136 l 17 136 l 117 949 l 930 949 l 1049 814 l 1000 407 l 847 271 l 304 271 z "},"Q":{"ha":1017,"x_min":17,"x_max":1172,"o":"m 930 949 l 1049 814 l 983 271 l 888 188 l 1172 -136 l 788 -136 l 669 0 l 136 0 l 17 136 l 100 814 l 252 949 l 930 949 m 753 610 l 694 678 l 422 678 l 347 610 l 313 339 l 372 271 l 576 271 l 728 407 l 753 610 z "},"R":{"ha":1017,"x_min":0,"x_max":1053,"o":"m 355 678 l 338 543 l 677 543 l 753 610 l 694 678 l 355 678 m 304 271 l 271 0 l 0 0 l 117 949 l 930 949 l 1049 814 l 1000 407 l 847 271 l 815 271 l 1053 0 l 669 0 l 431 271 l 304 271 z "},"S":{"ha":1017,"x_min":-102,"x_max":1202,"o":"m 1202 949 l 897 678 l 422 678 l 385 644 l 414 610 l 889 610 l 1008 475 l 966 136 l 814 0 l 136 0 l -102 271 l 644 271 l 682 305 l 652 339 l 177 339 l 58 475 l 100 814 l 252 949 l 1202 949 z "},"T":{"ha":1017,"x_min":83,"x_max":1066,"o":"m 422 678 l 83 678 l 117 949 l 1066 949 l 1033 678 l 694 678 l 593 -136 l 356 136 l 422 678 z "},"U":{"ha":1017,"x_min":17,"x_max":1066,"o":"m 720 339 l 795 949 l 1066 949 l 966 136 l 814 0 l 136 0 l 17 136 l 117 949 l 388 949 l 313 339 l 372 271 l 644 271 l 720 339 z "},"V":{"ha":1017,"x_min":33,"x_max":1066,"o":"m 736 475 l 795 949 l 1066 949 l 983 271 l 678 0 l 271 0 l 33 271 l 117 949 l 388 949 l 330 475 l 508 271 l 736 475 z "},"W":{"ha":1017,"x_min":17,"x_max":1066,"o":"m 720 339 l 795 949 l 1066 949 l 966 136 l 814 0 l 610 0 l 492 136 l 339 0 l 136 0 l 17 136 l 117 949 l 388 949 l 313 339 l 342 305 l 380 339 l 456 949 l 727 949 l 652 339 l 682 305 l 720 339 z "},"X":{"ha":1017,"x_min":0,"x_max":1066,"o":"m 380 339 l 304 271 l 271 0 l 0 0 l 41 339 l 194 475 l 75 610 l 117 949 l 388 949 l 355 678 l 414 610 l 686 610 l 762 678 l 795 949 l 1066 949 l 1025 610 l 872 475 l 991 339 l 949 0 l 678 0 l 711 271 l 652 339 l 380 339 z "},"Y":{"ha":1017,"x_min":50,"x_max":1066,"o":"m 753 610 l 795 949 l 1066 949 l 1000 407 l 847 271 l 644 271 l 593 -136 l 356 136 l 372 271 l 169 271 l 50 407 l 117 949 l 388 949 l 347 610 l 406 543 l 677 543 l 753 610 z "},"Z":{"ha":1017,"x_min":0,"x_max":1066,"o":"m 496 271 l 983 271 l 949 0 l 0 0 l 24 192 l 570 678 l 83 678 l 117 949 l 1066 949 l 1042 758 l 496 271 z "},"[":{"ha":543,"x_min":-8,"x_max":600,"o":"m 600 1017 l 566 746 l 363 746 l 296 203 l 500 203 l 467 -68 l -8 -68 l 125 1017 l 600 1017 z "},"\\":{"ha":1017,"x_min":93,"x_max":973,"o":"m 309 949 l 973 192 l 949 0 l 758 0 l 93 758 l 117 949 l 309 949 z "},"]":{"ha":543,"x_min":-8,"x_max":600,"o":"m -8 -68 l 25 203 l 229 203 l 295 746 l 92 746 l 125 1017 l 600 1017 l 467 -68 l -8 -68 z "},"^":{"ha":610,"x_min":83,"x_max":642,"o":"m 363 746 l 287 678 l 83 678 l 100 814 l 252 949 l 524 949 l 642 814 l 626 678 l 422 678 l 363 746 z "},"_":{"ha":1017,"x_min":0,"x_max":983,"o":"m 0 0 l 33 271 l 983 271 l 949 0 l 0 0 z "},"`":{"ha":610,"x_min":117,"x_max":626,"o":"m 626 678 l 355 678 l 117 949 l 524 949 l 626 678 z "},"a":{"ha":1017,"x_min":17,"x_max":1049,"o":"m 422 678 l 347 610 l 330 475 l 736 475 l 753 610 l 694 678 l 422 678 m 100 814 l 252 949 l 930 949 l 1049 814 l 949 0 l 678 0 l 703 203 l 296 203 l 254 -136 l 17 136 l 100 814 z "},"b":{"ha":1017,"x_min":0,"x_max":1049,"o":"m 355 678 l 347 610 l 686 610 l 724 644 l 694 678 l 355 678 m 313 339 l 304 271 l 644 271 l 682 305 l 652 339 l 313 339 m 0 0 l 117 949 l 930 949 l 1049 814 l 1025 610 l 872 475 l 991 339 l 966 136 l 814 0 l 0 0 z "},"c":{"ha":1017,"x_min":17,"x_max":1049,"o":"m 1025 610 l 745 543 l 753 610 l 694 678 l 422 678 l 347 610 l 313 339 l 372 271 l 644 271 l 720 339 l 728 407 l 991 339 l 966 136 l 814 0 l 136 0 l 17 136 l 100 814 l 252 949 l 930 949 l 1049 814 l 1025 610 z "},"d":{"ha":1017,"x_min":0,"x_max":1049,"o":"m 355 678 l 304 271 l 644 271 l 720 339 l 753 610 l 694 678 l 355 678 m 0 0 l 117 949 l 930 949 l 1049 814 l 966 136 l 814 0 l 0 0 z "},"e":{"ha":1017,"x_min":0,"x_max":1202,"o":"m 347 610 l 957 610 l 787 339 l 313 339 l 304 271 l 847 271 l 1085 0 l 0 0 l 117 949 l 1202 949 l 897 678 l 355 678 l 347 610 z "},"f":{"ha":1017,"x_min":0,"x_max":1066,"o":"m 347 610 l 957 610 l 923 339 l 313 339 l 271 0 l 0 0 l 117 949 l 1066 949 l 1033 678 l 355 678 l 347 610 z "},"g":{"ha":1017,"x_min":17,"x_max":1202,"o":"m 1202 949 l 897 678 l 422 678 l 347 610 l 313 339 l 372 271 l 644 271 l 720 339 l 448 339 l 482 610 l 1025 610 l 966 136 l 814 0 l 136 0 l 17 136 l 100 814 l 252 949 l 1202 949 z "},"h":{"ha":1017,"x_min":0,"x_max":1066,"o":"m 753 610 l 795 949 l 1066 949 l 949 0 l 678 0 l 720 339 l 313 339 l 271 0 l 0 0 l 117 949 l 388 949 l 347 610 l 753 610 z "},"i":{"ha":339,"x_min":0,"x_max":388,"o":"m 271 0 l 0 0 l 117 949 l 388 949 l 271 0 z "},"j":{"ha":1017,"x_min":17,"x_max":1066,"o":"m 136 0 l 17 136 l 41 339 l 313 339 l 372 271 l 644 271 l 720 339 l 795 949 l 1066 949 l 966 136 l 814 0 l 136 0 z "},"k":{"ha":1017,"x_min":17,"x_max":1170,"o":"m 339 551 l 786 949 l 1170 949 l 637 475 l 1053 0 l 669 0 l 320 398 l 254 -136 l 17 136 l 117 949 l 388 949 l 339 551 z "},"l":{"ha":1017,"x_min":0,"x_max":983,"o":"m 117 949 l 388 949 l 304 271 l 983 271 l 949 0 l 0 0 l 117 949 z "},"m":{"ha":1017,"x_min":17,"x_max":1066,"o":"m 347 610 l 254 -136 l 17 136 l 117 949 l 456 949 l 574 814 l 727 949 l 1066 949 l 949 0 l 678 0 l 753 610 l 724 644 l 686 610 l 610 0 l 339 0 l 414 610 l 385 644 l 347 610 z "},"n":{"ha":1017,"x_min":0,"x_max":1066,"o":"m 736 475 l 795 949 l 1066 949 l 949 0 l 746 0 l 330 475 l 271 0 l 0 0 l 117 949 l 320 949 l 736 475 z "},"o":{"ha":1017,"x_min":17,"x_max":1049,"o":"m 753 610 l 694 678 l 422 678 l 347 610 l 313 339 l 372 271 l 644 271 l 720 339 l 753 610 m 930 949 l 1049 814 l 966 136 l 814 0 l 136 0 l 17 136 l 100 814 l 252 949 l 930 949 z "},"p":{"ha":1017,"x_min":17,"x_max":1049,"o":"m 355 678 l 338 543 l 677 543 l 753 610 l 694 678 l 355 678 m 304 271 l 254 -136 l 17 136 l 117 949 l 930 949 l 1049 814 l 1000 407 l 847 271 l 304 271 z "},"q":{"ha":1017,"x_min":17,"x_max":1172,"o":"m 930 949 l 1049 814 l 983 271 l 888 188 l 1172 -136 l 788 -136 l 669 0 l 136 0 l 17 136 l 100 814 l 252 949 l 930 949 m 753 610 l 694 678 l 422 678 l 347 610 l 313 339 l 372 271 l 576 271 l 728 407 l 753 610 z "},"r":{"ha":1017,"x_min":0,"x_max":1053,"o":"m 355 678 l 338 543 l 677 543 l 753 610 l 694 678 l 355 678 m 304 271 l 271 0 l 0 0 l 117 949 l 930 949 l 1049 814 l 1000 407 l 847 271 l 815 271 l 1053 0 l 669 0 l 431 271 l 304 271 z "},"s":{"ha":1017,"x_min":-102,"x_max":1202,"o":"m 1202 949 l 897 678 l 422 678 l 385 644 l 414 610 l 889 610 l 1008 475 l 966 136 l 814 0 l 136 0 l -102 271 l 644 271 l 682 305 l 652 339 l 177 339 l 58 475 l 100 814 l 252 949 l 1202 949 z "},"t":{"ha":1017,"x_min":83,"x_max":1066,"o":"m 422 678 l 83 678 l 117 949 l 1066 949 l 1033 678 l 694 678 l 593 -136 l 356 136 l 422 678 z "},"u":{"ha":1017,"x_min":17,"x_max":1066,"o":"m 720 339 l 795 949 l 1066 949 l 966 136 l 814 0 l 136 0 l 17 136 l 117 949 l 388 949 l 313 339 l 372 271 l 644 271 l 720 339 z "},"v":{"ha":1017,"x_min":33,"x_max":1066,"o":"m 736 475 l 795 949 l 1066 949 l 983 271 l 678 0 l 271 0 l 33 271 l 117 949 l 388 949 l 330 475 l 508 271 l 736 475 z "},"w":{"ha":1017,"x_min":17,"x_max":1066,"o":"m 720 339 l 795 949 l 1066 949 l 966 136 l 814 0 l 610 0 l 492 136 l 339 0 l 136 0 l 17 136 l 117 949 l 388 949 l 313 339 l 342 305 l 380 339 l 456 949 l 727 949 l 652 339 l 682 305 l 720 339 z "},"x":{"ha":1017,"x_min":0,"x_max":1066,"o":"m 380 339 l 304 271 l 271 0 l 0 0 l 41 339 l 194 475 l 75 610 l 117 949 l 388 949 l 355 678 l 414 610 l 686 610 l 762 678 l 795 949 l 1066 949 l 1025 610 l 872 475 l 991 339 l 949 0 l 678 0 l 711 271 l 652 339 l 380 339 z "},"y":{"ha":1017,"x_min":50,"x_max":1066,"o":"m 753 610 l 795 949 l 1066 949 l 1000 407 l 847 271 l 644 271 l 593 -136 l 356 136 l 372 271 l 169 271 l 50 407 l 117 949 l 388 949 l 347 610 l 406 543 l 677 543 l 753 610 z "},"z":{"ha":1017,"x_min":0,"x_max":1066,"o":"m 496 271 l 983 271 l 949 0 l 0 0 l 24 192 l 570 678 l 83 678 l 117 949 l 1066 949 l 1042 758 l 496 271 z "},"{":{"ha":678,"x_min":50,"x_max":735,"o":"m 219 678 l 244 882 l 396 1017 l 735 1017 l 702 746 l 566 746 l 490 678 l 473 543 l 397 475 l 457 407 l 440 271 l 500 203 l 635 203 l 602 -68 l 263 -68 l 144 68 l 169 271 l 50 407 l 66 543 l 219 678 z "},"|":{"ha":339,"x_min":-8,"x_max":396,"o":"m 263 -68 l -8 -68 l 125 1017 l 396 1017 l 263 -68 z "},"}":{"ha":678,"x_min":-8,"x_max":677,"o":"m 508 271 l 483 68 l 331 -68 l -8 -68 l 25 203 l 161 203 l 237 271 l 254 407 l 330 475 l 270 543 l 287 678 l 227 746 l 92 746 l 125 1017 l 464 1017 l 583 882 l 558 678 l 677 543 l 661 407 l 508 271 z "},"~":{"ha":882,"x_min":41,"x_max":897,"o":"m 321 407 l 245 339 l 41 339 l 75 610 l 151 678 l 558 678 l 618 610 l 694 678 l 897 678 l 864 407 l 787 339 l 380 339 l 321 407 z "},"¡":{"ha":339,"x_min":-117,"x_max":271,"o":"m 0 694 l 271 694 l 238 423 l -33 423 l 0 694 m -41 355 l 230 355 l 155 -255 l -117 -255 l -41 355 z "},"¢":{"ha":1017,"x_min":17,"x_max":1049,"o":"m 372 271 l 644 271 l 720 339 l 728 407 l 991 339 l 966 136 l 814 0 l 610 0 l 593 -136 l 322 -136 l 339 0 l 136 0 l 17 136 l 100 814 l 252 949 l 456 949 l 472 1085 l 743 1085 l 727 949 l 930 949 l 1049 814 l 1025 610 l 745 543 l 753 610 l 694 678 l 422 678 l 347 610 l 313 339 l 372 271 z "},"£":{"ha":1017,"x_min":0,"x_max":1049,"o":"m 1025 610 l 745 543 l 753 610 l 694 678 l 490 678 l 414 610 l 686 610 l 652 339 l 380 339 l 372 271 l 711 271 l 728 407 l 991 339 l 949 0 l 0 0 l 33 271 l 101 271 l 109 339 l 41 339 l 75 610 l 143 610 l 168 814 l 320 949 l 930 949 l 1049 814 l 1025 610 z "},"¤":{"ha":1017,"x_min":-102,"x_max":1202,"o":"m 727 949 l 1202 949 l 897 678 l 422 678 l 385 644 l 414 610 l 889 610 l 1008 475 l 966 136 l 814 0 l 610 0 l 593 -136 l 322 -136 l 339 0 l 136 0 l -102 271 l 644 271 l 682 305 l 652 339 l 177 339 l 58 475 l 100 814 l 252 949 l 456 949 l 472 1085 l 743 1085 l 727 949 z "},"¥":{"ha":1017,"x_min":66,"x_max":1066,"o":"m 770 746 l 795 949 l 1066 949 l 1016 543 l 864 407 l 661 407 l 652 339 l 923 339 l 890 68 l 618 68 l 610 0 l 339 0 l 347 68 l 76 68 l 109 339 l 380 339 l 389 407 l 186 407 l 66 543 l 117 949 l 388 949 l 363 746 l 422 678 l 694 678 l 770 746 z "},"¦":{"ha":339,"x_min":-8,"x_max":396,"o":"m 326 441 l 263 -68 l -8 -68 l 54 441 l 326 441 m 62 509 l 125 1017 l 396 1017 l 334 509 l 62 509 z "},"§":{"ha":1017,"x_min":-102,"x_max":1202,"o":"m 1202 949 l 897 678 l 422 678 l 385 644 l 414 610 l 889 610 l 1008 475 l 966 136 l 814 0 l 136 0 l -102 271 l 644 271 l 682 305 l 652 339 l 177 339 l 58 475 l 100 814 l 252 949 l 1202 949 m 699 441 l 707 509 l 368 509 l 359 441 l 699 441 z "},"¨":{"ha":678,"x_min":83,"x_max":727,"o":"m 355 678 l 83 678 l 117 949 l 388 949 l 355 678 m 694 678 l 422 678 l 456 949 l 727 949 l 694 678 z "},"©":{"ha":1017,"x_min":17,"x_max":1049,"o":"m 829 678 l 770 746 l 363 746 l 287 678 l 237 271 l 296 203 l 703 203 l 779 271 l 829 678 m 930 949 l 1049 814 l 966 136 l 814 0 l 136 0 l 17 136 l 100 814 l 252 949 l 930 949 m 732 441 l 711 271 l 304 271 l 355 678 l 762 678 l 741 509 l 537 509 l 529 441 l 732 441 z "},"«":{"ha":1215,"x_min":50,"x_max":1264,"o":"m 465 475 l 644 271 l 610 0 l 407 0 l 50 407 l 66 543 l 524 949 l 727 949 l 694 678 l 465 475 m 1002 475 l 1181 271 l 1147 0 l 944 0 l 587 407 l 604 543 l 1061 949 l 1264 949 l 1231 678 l 1002 475 z "},"¬":{"ha":746,"x_min":50,"x_max":762,"o":"m 457 407 l 50 407 l 83 678 l 762 678 l 711 271 l 440 271 l 457 407 z "},"®":{"ha":1017,"x_min":17,"x_max":1049,"o":"m 829 678 l 770 746 l 363 746 l 287 678 l 237 271 l 296 203 l 703 203 l 779 271 l 829 678 m 930 949 l 1049 814 l 966 136 l 814 0 l 136 0 l 17 136 l 100 814 l 252 949 l 930 949 m 304 271 l 355 678 l 762 678 l 741 509 l 537 509 l 508 271 l 304 271 z "},"¯":{"ha":746,"x_min":41,"x_max":753,"o":"m 41 762 l 75 1034 l 753 1034 l 720 762 l 41 762 z "},"°":{"ha":543,"x_min":94,"x_max":573,"o":"m 304 540 l 94 780 l 363 1020 l 573 780 l 304 540 m 328 732 l 381 780 l 339 828 l 285 780 l 328 732 z "},"±":{"ha":746,"x_min":8,"x_max":762,"o":"m 245 339 l 254 407 l 50 407 l 83 678 l 287 678 l 312 882 l 583 882 l 558 678 l 762 678 l 728 407 l 525 407 l 516 339 l 720 339 l 686 68 l 8 68 l 41 339 l 245 339 z "},"´":{"ha":610,"x_min":83,"x_max":659,"o":"m 83 678 l 252 949 l 659 949 l 355 678 l 83 678 z "},"¶":{"ha":1017,"x_min":50,"x_max":1066,"o":"m 627 136 l 322 -136 l 372 271 l 169 271 l 50 407 l 100 814 l 252 949 l 1066 949 l 966 136 l 661 -136 l 762 678 l 694 678 l 627 136 z "},"·":{"ha":271,"x_min":0,"x_max":259,"o":"m 231 371 l 0 371 l 28 602 l 259 602 l 231 371 z "},"¸":{"ha":407,"x_min":-33,"x_max":364,"o":"m 314 -203 l 238 -271 l -33 -271 l -8 -68 l 68 0 l 8 68 l 33 271 l 304 271 l 364 203 l 314 -203 z "},"»":{"ha":1215,"x_min":0,"x_max":1214,"o":"m 262 475 l 83 678 l 117 949 l 320 949 l 677 543 l 661 407 l 203 0 l 0 0 l 33 271 l 262 475 m 799 475 l 621 678 l 654 949 l 857 949 l 1214 543 l 1198 407 l 741 0 l 537 0 l 570 271 l 799 475 z "},"¿":{"ha":1017,"x_min":-100,"x_max":866,"o":"m 256 16 l 866 16 l 833 -255 l 19 -255 l -100 -119 l -58 220 l 94 355 l 705 355 l 671 84 l 264 84 l 226 50 l 256 16 m 475 694 l 746 694 l 713 423 l 441 423 l 475 694 z "},"À":{"ha":1017,"x_min":17,"x_max":1049,"o":"m 422 678 l 347 610 l 330 475 l 736 475 l 753 610 l 694 678 l 422 678 m 803 1017 l 532 1017 l 294 1289 l 701 1289 l 803 1017 m 100 814 l 252 949 l 930 949 l 1049 814 l 949 0 l 678 0 l 703 203 l 296 203 l 254 -136 l 17 136 l 100 814 z "},"Á":{"ha":1017,"x_min":17,"x_max":1049,"o":"m 422 678 l 347 610 l 330 475 l 736 475 l 753 610 l 694 678 l 422 678 m 396 1017 l 565 1289 l 972 1289 l 667 1017 l 396 1017 m 100 814 l 252 949 l 930 949 l 1049 814 l 949 0 l 678 0 l 703 203 l 296 203 l 254 -136 l 17 136 l 100 814 z "},"Â":{"ha":1017,"x_min":17,"x_max":1049,"o":"m 422 678 l 347 610 l 330 475 l 736 475 l 753 610 l 694 678 l 422 678 m 608 1085 l 532 1017 l 328 1017 l 345 1153 l 497 1289 l 768 1289 l 888 1153 l 871 1017 l 667 1017 l 608 1085 m 100 814 l 252 949 l 930 949 l 1049 814 l 949 0 l 678 0 l 703 203 l 296 203 l 254 -136 l 17 136 l 100 814 z "},"Ã":{"ha":1017,"x_min":17,"x_max":1049,"o":"m 422 678 l 347 610 l 330 475 l 736 475 l 753 610 l 694 678 l 422 678 m 540 1085 l 464 1017 l 328 1017 l 353 1221 l 429 1289 l 701 1289 l 760 1221 l 836 1289 l 972 1289 l 947 1085 l 871 1017 l 600 1017 l 540 1085 m 100 814 l 252 949 l 930 949 l 1049 814 l 949 0 l 678 0 l 703 203 l 296 203 l 254 -136 l 17 136 l 100 814 z "},"Ä":{"ha":1017,"x_min":17,"x_max":1049,"o":"m 422 678 l 347 610 l 330 475 l 736 475 l 753 610 l 694 678 l 422 678 m 905 1017 l 633 1017 l 667 1289 l 938 1289 l 905 1017 m 566 1017 l 294 1017 l 328 1289 l 599 1289 l 566 1017 m 100 814 l 252 949 l 930 949 l 1049 814 l 949 0 l 678 0 l 703 203 l 296 203 l 254 -136 l 17 136 l 100 814 z "},"Å":{"ha":1017,"x_min":17,"x_max":1049,"o":"m 599 1010 l 653 1058 l 610 1106 l 557 1058 l 599 1010 m 100 814 l 252 949 l 460 949 l 365 1058 l 634 1298 l 845 1058 l 723 949 l 930 949 l 1049 814 l 949 0 l 678 0 l 703 203 l 296 203 l 254 -136 l 17 136 l 100 814 m 422 678 l 347 610 l 330 475 l 736 475 l 753 610 l 694 678 l 422 678 z "},"Æ":{"ha":1695,"x_min":17,"x_max":1880,"o":"m 100 814 l 252 949 l 1880 949 l 1575 678 l 1033 678 l 1025 610 l 1635 610 l 1466 339 l 991 339 l 983 271 l 1525 271 l 1763 0 l 678 0 l 703 203 l 296 203 l 254 -136 l 17 136 l 100 814 m 422 678 l 347 610 l 330 475 l 736 475 l 762 678 l 422 678 z "},"Ç":{"ha":1017,"x_min":17,"x_max":1049,"o":"m 1025 610 l 745 543 l 753 610 l 694 678 l 422 678 l 347 610 l 313 339 l 372 271 l 644 271 l 720 339 l 728 407 l 991 339 l 966 136 l 814 0 l 644 0 l 619 -203 l 543 -271 l 272 -271 l 297 -68 l 373 0 l 136 0 l 17 136 l 100 814 l 252 949 l 930 949 l 1049 814 l 1025 610 z "},"È":{"ha":1017,"x_min":0,"x_max":1202,"o":"m 347 610 l 957 610 l 787 339 l 313 339 l 304 271 l 847 271 l 1085 0 l 0 0 l 117 949 l 1202 949 l 897 678 l 355 678 l 347 610 m 871 1017 l 600 1017 l 361 1289 l 768 1289 l 871 1017 z "},"É":{"ha":1017,"x_min":0,"x_max":1202,"o":"m 347 610 l 957 610 l 787 339 l 313 339 l 304 271 l 847 271 l 1085 0 l 0 0 l 117 949 l 1202 949 l 897 678 l 355 678 l 347 610 m 464 1017 l 633 1289 l 1040 1289 l 735 1017 l 464 1017 z "},"Ê":{"ha":1017,"x_min":0,"x_max":1202,"o":"m 347 610 l 957 610 l 787 339 l 313 339 l 304 271 l 847 271 l 1085 0 l 0 0 l 117 949 l 1202 949 l 897 678 l 355 678 l 347 610 m 675 1085 l 600 1017 l 396 1017 l 413 1153 l 565 1289 l 836 1289 l 956 1153 l 939 1017 l 735 1017 l 675 1085 z "},"Ë":{"ha":1017,"x_min":0,"x_max":1202,"o":"m 347 610 l 957 610 l 787 339 l 313 339 l 304 271 l 847 271 l 1085 0 l 0 0 l 117 949 l 1202 949 l 897 678 l 355 678 l 347 610 m 972 1017 l 701 1017 l 734 1289 l 1006 1289 l 972 1017 m 633 1017 l 362 1017 l 395 1289 l 667 1289 l 633 1017 z "},"Ì":{"ha":339,"x_min":-45,"x_max":464,"o":"m 271 0 l 0 0 l 117 949 l 388 949 l 271 0 m 464 1017 l 193 1017 l -45 1289 l 361 1289 l 464 1017 z "},"Í":{"ha":339,"x_min":0,"x_max":591,"o":"m 271 0 l 0 0 l 117 949 l 388 949 l 271 0 m 16 1017 l 184 1289 l 591 1289 l 287 1017 l 16 1017 z "},"Î":{"ha":339,"x_min":-52,"x_max":507,"o":"m 271 0 l 0 0 l 117 949 l 388 949 l 271 0 m 227 1085 l 151 1017 l -52 1017 l -36 1153 l 117 1289 l 388 1289 l 507 1153 l 490 1017 l 287 1017 l 227 1085 z "},"Ï":{"ha":339,"x_min":-45,"x_max":599,"o":"m 271 0 l 0 0 l 117 949 l 388 949 l 271 0 m 566 1017 l 294 1017 l 328 1289 l 599 1289 l 566 1017 m 227 1017 l -45 1017 l -12 1289 l 260 1289 l 227 1017 z "},"Ð":{"ha":1085,"x_min":41,"x_max":1117,"o":"m 136 0 l 177 339 l 41 339 l 75 610 l 211 610 l 252 949 l 998 949 l 1117 814 l 1034 136 l 882 0 l 136 0 m 448 339 l 440 271 l 711 271 l 787 339 l 821 610 l 762 678 l 490 678 l 482 610 l 686 610 l 652 339 l 448 339 z "},"Ñ":{"ha":1017,"x_min":0,"x_max":1066,"o":"m 735 463 l 795 949 l 1066 949 l 949 0 l 746 0 l 737 23 l 331 486 l 271 0 l 0 0 l 117 949 l 309 949 l 735 463 m 506 1085 l 430 1017 l 294 1017 l 319 1221 l 395 1289 l 667 1289 l 726 1221 l 802 1289 l 938 1289 l 913 1085 l 837 1017 l 566 1017 l 506 1085 z "},"Ò":{"ha":1017,"x_min":17,"x_max":1049,"o":"m 753 610 l 694 678 l 422 678 l 347 610 l 313 339 l 372 271 l 644 271 l 720 339 l 753 610 m 803 1017 l 532 1017 l 294 1289 l 701 1289 l 803 1017 m 930 949 l 1049 814 l 966 136 l 814 0 l 136 0 l 17 136 l 100 814 l 252 949 l 930 949 z "},"Ó":{"ha":1017,"x_min":17,"x_max":1049,"o":"m 753 610 l 694 678 l 422 678 l 347 610 l 313 339 l 372 271 l 644 271 l 720 339 l 753 610 m 396 1017 l 565 1289 l 972 1289 l 667 1017 l 396 1017 m 930 949 l 1049 814 l 966 136 l 814 0 l 136 0 l 17 136 l 100 814 l 252 949 l 930 949 z "},"Ô":{"ha":1017,"x_min":17,"x_max":1049,"o":"m 753 610 l 694 678 l 422 678 l 347 610 l 313 339 l 372 271 l 644 271 l 720 339 l 753 610 m 608 1085 l 532 1017 l 328 1017 l 345 1153 l 497 1289 l 768 1289 l 888 1153 l 871 1017 l 667 1017 l 608 1085 m 930 949 l 1049 814 l 966 136 l 814 0 l 136 0 l 17 136 l 100 814 l 252 949 l 930 949 z "},"Õ":{"ha":1017,"x_min":17,"x_max":1049,"o":"m 753 610 l 694 678 l 422 678 l 347 610 l 313 339 l 372 271 l 644 271 l 720 339 l 753 610 m 506 1085 l 430 1017 l 294 1017 l 319 1221 l 395 1289 l 667 1289 l 726 1221 l 802 1289 l 938 1289 l 913 1085 l 837 1017 l 566 1017 l 506 1085 m 930 949 l 1049 814 l 966 136 l 814 0 l 136 0 l 17 136 l 100 814 l 252 949 l 930 949 z "},"Ö":{"ha":1017,"x_min":17,"x_max":1049,"o":"m 753 610 l 694 678 l 422 678 l 347 610 l 313 339 l 372 271 l 644 271 l 720 339 l 753 610 m 905 1017 l 633 1017 l 667 1289 l 938 1289 l 905 1017 m 566 1017 l 294 1017 l 328 1289 l 599 1289 l 566 1017 m 930 949 l 1049 814 l 966 136 l 814 0 l 136 0 l 17 136 l 100 814 l 252 949 l 930 949 z "},"×":{"ha":746,"x_min":44,"x_max":751,"o":"m 205 475 l 79 618 l 295 810 l 421 667 l 583 810 l 751 618 l 589 475 l 715 331 l 500 139 l 374 283 l 212 139 l 44 331 l 205 475 z "},"Ø":{"ha":1017,"x_min":17,"x_max":1049,"o":"m 930 949 l 1049 814 l 966 136 l 814 0 l 136 0 l 17 136 l 100 814 l 252 949 l 930 949 m 570 678 l 422 678 l 347 610 l 328 463 l 570 678 m 644 271 l 720 339 l 738 486 l 496 271 l 644 271 z "},"Ù":{"ha":1017,"x_min":17,"x_max":1066,"o":"m 720 339 l 795 949 l 1066 949 l 966 136 l 814 0 l 136 0 l 17 136 l 117 949 l 388 949 l 313 339 l 372 271 l 644 271 l 720 339 m 803 1017 l 532 1017 l 294 1289 l 701 1289 l 803 1017 z "},"Ú":{"ha":1017,"x_min":17,"x_max":1066,"o":"m 720 339 l 795 949 l 1066 949 l 966 136 l 814 0 l 136 0 l 17 136 l 117 949 l 388 949 l 313 339 l 372 271 l 644 271 l 720 339 m 396 1017 l 565 1289 l 972 1289 l 667 1017 l 396 1017 z "},"Û":{"ha":1017,"x_min":17,"x_max":1066,"o":"m 720 339 l 795 949 l 1066 949 l 966 136 l 814 0 l 136 0 l 17 136 l 117 949 l 388 949 l 313 339 l 372 271 l 644 271 l 720 339 m 608 1085 l 532 1017 l 328 1017 l 345 1153 l 497 1289 l 768 1289 l 888 1153 l 871 1017 l 667 1017 l 608 1085 z "},"Ü":{"ha":1017,"x_min":17,"x_max":1066,"o":"m 720 339 l 795 949 l 1066 949 l 966 136 l 814 0 l 136 0 l 17 136 l 117 949 l 388 949 l 313 339 l 372 271 l 644 271 l 720 339 m 905 1017 l 633 1017 l 667 1289 l 938 1289 l 905 1017 m 566 1017 l 294 1017 l 328 1289 l 599 1289 l 566 1017 z "},"Ý":{"ha":1017,"x_min":50,"x_max":1066,"o":"m 753 610 l 795 949 l 1066 949 l 1000 407 l 847 271 l 644 271 l 593 -136 l 356 136 l 372 271 l 169 271 l 50 407 l 117 949 l 388 949 l 347 610 l 406 543 l 677 543 l 753 610 m 396 1017 l 565 1289 l 972 1289 l 667 1017 l 396 1017 z "},"Þ":{"ha":1017,"x_min":0,"x_max":1041,"o":"m 745 543 l 686 610 l 347 610 l 313 339 l 652 339 l 728 407 l 745 543 m 922 882 l 1041 746 l 975 203 l 822 68 l 279 68 l 271 0 l 0 0 l 117 949 l 388 949 l 380 882 l 922 882 z "},"ß":{"ha":1017,"x_min":0,"x_max":1049,"o":"m 339 0 l 372 271 l 644 271 l 682 305 l 652 339 l 380 339 l 414 610 l 686 610 l 724 644 l 694 678 l 422 678 l 347 610 l 238 -271 l 0 0 l 100 814 l 252 949 l 930 949 l 1049 814 l 1025 610 l 872 475 l 991 339 l 966 136 l 814 0 l 339 0 z "},"à":{"ha":1017,"x_min":17,"x_max":1049,"o":"m 422 678 l 347 610 l 330 475 l 736 475 l 753 610 l 694 678 l 422 678 m 803 1017 l 532 1017 l 294 1289 l 701 1289 l 803 1017 m 100 814 l 252 949 l 930 949 l 1049 814 l 949 0 l 678 0 l 703 203 l 296 203 l 254 -136 l 17 136 l 100 814 z "},"á":{"ha":1017,"x_min":17,"x_max":1049,"o":"m 422 678 l 347 610 l 330 475 l 736 475 l 753 610 l 694 678 l 422 678 m 396 1017 l 565 1289 l 972 1289 l 667 1017 l 396 1017 m 100 814 l 252 949 l 930 949 l 1049 814 l 949 0 l 678 0 l 703 203 l 296 203 l 254 -136 l 17 136 l 100 814 z "},"â":{"ha":1017,"x_min":17,"x_max":1049,"o":"m 422 678 l 347 610 l 330 475 l 736 475 l 753 610 l 694 678 l 422 678 m 608 1085 l 532 1017 l 328 1017 l 345 1153 l 497 1289 l 768 1289 l 888 1153 l 871 1017 l 667 1017 l 608 1085 m 100 814 l 252 949 l 930 949 l 1049 814 l 949 0 l 678 0 l 703 203 l 296 203 l 254 -136 l 17 136 l 100 814 z "},"ã":{"ha":1017,"x_min":17,"x_max":1049,"o":"m 422 678 l 347 610 l 330 475 l 736 475 l 753 610 l 694 678 l 422 678 m 540 1085 l 464 1017 l 328 1017 l 353 1221 l 429 1289 l 701 1289 l 760 1221 l 836 1289 l 972 1289 l 947 1085 l 871 1017 l 600 1017 l 540 1085 m 100 814 l 252 949 l 930 949 l 1049 814 l 949 0 l 678 0 l 703 203 l 296 203 l 254 -136 l 17 136 l 100 814 z "},"ä":{"ha":1017,"x_min":17,"x_max":1049,"o":"m 422 678 l 347 610 l 330 475 l 736 475 l 753 610 l 694 678 l 422 678 m 905 1017 l 633 1017 l 667 1289 l 938 1289 l 905 1017 m 566 1017 l 294 1017 l 328 1289 l 599 1289 l 566 1017 m 100 814 l 252 949 l 930 949 l 1049 814 l 949 0 l 678 0 l 703 203 l 296 203 l 254 -136 l 17 136 l 100 814 z "},"å":{"ha":1017,"x_min":17,"x_max":1049,"o":"m 599 1010 l 653 1058 l 610 1106 l 557 1058 l 599 1010 m 100 814 l 252 949 l 460 949 l 365 1058 l 634 1298 l 845 1058 l 723 949 l 930 949 l 1049 814 l 949 0 l 678 0 l 703 203 l 296 203 l 254 -136 l 17 136 l 100 814 m 422 678 l 347 610 l 330 475 l 736 475 l 753 610 l 694 678 l 422 678 z "},"æ":{"ha":1695,"x_min":17,"x_max":1880,"o":"m 100 814 l 252 949 l 1880 949 l 1575 678 l 1033 678 l 1025 610 l 1635 610 l 1466 339 l 991 339 l 983 271 l 1525 271 l 1763 0 l 678 0 l 703 203 l 296 203 l 254 -136 l 17 136 l 100 814 m 422 678 l 347 610 l 330 475 l 736 475 l 762 678 l 422 678 z "},"ç":{"ha":1017,"x_min":17,"x_max":1049,"o":"m 1025 610 l 745 543 l 753 610 l 694 678 l 422 678 l 347 610 l 313 339 l 372 271 l 644 271 l 720 339 l 728 407 l 991 339 l 966 136 l 814 0 l 644 0 l 619 -203 l 543 -271 l 272 -271 l 297 -68 l 373 0 l 136 0 l 17 136 l 100 814 l 252 949 l 930 949 l 1049 814 l 1025 610 z "},"è":{"ha":1017,"x_min":0,"x_max":1202,"o":"m 347 610 l 957 610 l 787 339 l 313 339 l 304 271 l 847 271 l 1085 0 l 0 0 l 117 949 l 1202 949 l 897 678 l 355 678 l 347 610 m 871 1017 l 600 1017 l 361 1289 l 768 1289 l 871 1017 z "},"é":{"ha":1017,"x_min":0,"x_max":1202,"o":"m 347 610 l 957 610 l 787 339 l 313 339 l 304 271 l 847 271 l 1085 0 l 0 0 l 117 949 l 1202 949 l 897 678 l 355 678 l 347 610 m 464 1017 l 633 1289 l 1040 1289 l 735 1017 l 464 1017 z "},"ê":{"ha":1017,"x_min":0,"x_max":1202,"o":"m 347 610 l 957 610 l 787 339 l 313 339 l 304 271 l 847 271 l 1085 0 l 0 0 l 117 949 l 1202 949 l 897 678 l 355 678 l 347 610 m 675 1085 l 600 1017 l 396 1017 l 413 1153 l 565 1289 l 836 1289 l 956 1153 l 939 1017 l 735 1017 l 675 1085 z "},"ë":{"ha":1017,"x_min":0,"x_max":1202,"o":"m 347 610 l 957 610 l 787 339 l 313 339 l 304 271 l 847 271 l 1085 0 l 0 0 l 117 949 l 1202 949 l 897 678 l 355 678 l 347 610 m 972 1017 l 701 1017 l 734 1289 l 1006 1289 l 972 1017 m 633 1017 l 362 1017 l 395 1289 l 667 1289 l 633 1017 z "},"ì":{"ha":339,"x_min":-45,"x_max":464,"o":"m 271 0 l 0 0 l 117 949 l 388 949 l 271 0 m 464 1017 l 193 1017 l -45 1289 l 361 1289 l 464 1017 z "},"í":{"ha":339,"x_min":0,"x_max":633,"o":"m 271 0 l 0 0 l 117 949 l 388 949 l 271 0 m 58 1017 l 227 1289 l 633 1289 l 329 1017 l 58 1017 z "},"î":{"ha":339,"x_min":-11,"x_max":549,"o":"m 271 0 l 0 0 l 117 949 l 388 949 l 271 0 m 269 1085 l 193 1017 l -11 1017 l 6 1153 l 158 1289 l 429 1289 l 549 1153 l 532 1017 l 328 1017 l 269 1085 z "},"ï":{"ha":339,"x_min":-45,"x_max":599,"o":"m 271 0 l 0 0 l 117 949 l 388 949 l 271 0 m 566 1017 l 294 1017 l 328 1289 l 599 1289 l 566 1017 m 227 1017 l -45 1017 l -12 1289 l 260 1289 l 227 1017 z "},"ð":{"ha":1085,"x_min":41,"x_max":1117,"o":"m 136 0 l 177 339 l 41 339 l 75 610 l 211 610 l 252 949 l 998 949 l 1117 814 l 1034 136 l 882 0 l 136 0 m 448 339 l 440 271 l 711 271 l 787 339 l 821 610 l 762 678 l 490 678 l 482 610 l 686 610 l 652 339 l 448 339 z "},"ñ":{"ha":1017,"x_min":0,"x_max":1066,"o":"m 735 463 l 795 949 l 1066 949 l 949 0 l 746 0 l 737 23 l 331 486 l 271 0 l 0 0 l 117 949 l 309 949 l 735 463 m 506 1085 l 430 1017 l 294 1017 l 319 1221 l 395 1289 l 667 1289 l 726 1221 l 802 1289 l 938 1289 l 913 1085 l 837 1017 l 566 1017 l 506 1085 z "},"ò":{"ha":1017,"x_min":17,"x_max":1049,"o":"m 753 610 l 694 678 l 422 678 l 347 610 l 313 339 l 372 271 l 644 271 l 720 339 l 753 610 m 803 1017 l 532 1017 l 294 1289 l 701 1289 l 803 1017 m 930 949 l 1049 814 l 966 136 l 814 0 l 136 0 l 17 136 l 100 814 l 252 949 l 930 949 z "},"ó":{"ha":1017,"x_min":17,"x_max":1049,"o":"m 753 610 l 694 678 l 422 678 l 347 610 l 313 339 l 372 271 l 644 271 l 720 339 l 753 610 m 396 1017 l 565 1289 l 972 1289 l 667 1017 l 396 1017 m 930 949 l 1049 814 l 966 136 l 814 0 l 136 0 l 17 136 l 100 814 l 252 949 l 930 949 z "},"ô":{"ha":1017,"x_min":17,"x_max":1049,"o":"m 753 610 l 694 678 l 422 678 l 347 610 l 313 339 l 372 271 l 644 271 l 720 339 l 753 610 m 608 1085 l 532 1017 l 328 1017 l 345 1153 l 497 1289 l 768 1289 l 888 1153 l 871 1017 l 667 1017 l 608 1085 m 930 949 l 1049 814 l 966 136 l 814 0 l 136 0 l 17 136 l 100 814 l 252 949 l 930 949 z "},"õ":{"ha":1017,"x_min":17,"x_max":1049,"o":"m 753 610 l 694 678 l 422 678 l 347 610 l 313 339 l 372 271 l 644 271 l 720 339 l 753 610 m 506 1085 l 430 1017 l 294 1017 l 319 1221 l 395 1289 l 667 1289 l 726 1221 l 802 1289 l 938 1289 l 913 1085 l 837 1017 l 566 1017 l 506 1085 m 930 949 l 1049 814 l 966 136 l 814 0 l 136 0 l 17 136 l 100 814 l 252 949 l 930 949 z "},"ö":{"ha":1017,"x_min":17,"x_max":1049,"o":"m 753 610 l 694 678 l 422 678 l 347 610 l 313 339 l 372 271 l 644 271 l 720 339 l 753 610 m 905 1017 l 633 1017 l 667 1289 l 938 1289 l 905 1017 m 566 1017 l 294 1017 l 328 1289 l 599 1289 l 566 1017 m 930 949 l 1049 814 l 966 136 l 814 0 l 136 0 l 17 136 l 100 814 l 252 949 l 930 949 z "},"÷":{"ha":1017,"x_min":0,"x_max":1066,"o":"m 192 0 l 0 0 l 24 192 l 874 949 l 1066 949 l 1042 758 l 192 0 z "},"ø":{"ha":1017,"x_min":17,"x_max":1049,"o":"m 930 949 l 1049 814 l 966 136 l 814 0 l 136 0 l 17 136 l 100 814 l 252 949 l 930 949 m 570 678 l 422 678 l 347 610 l 328 463 l 570 678 m 644 271 l 720 339 l 738 486 l 496 271 l 644 271 z "},"ù":{"ha":1017,"x_min":17,"x_max":1066,"o":"m 720 339 l 795 949 l 1066 949 l 966 136 l 814 0 l 136 0 l 17 136 l 117 949 l 388 949 l 313 339 l 372 271 l 644 271 l 720 339 m 803 1017 l 532 1017 l 294 1289 l 701 1289 l 803 1017 z "},"ú":{"ha":1017,"x_min":17,"x_max":1066,"o":"m 720 339 l 795 949 l 1066 949 l 966 136 l 814 0 l 136 0 l 17 136 l 117 949 l 388 949 l 313 339 l 372 271 l 644 271 l 720 339 m 396 1017 l 565 1289 l 972 1289 l 667 1017 l 396 1017 z "},"û":{"ha":1017,"x_min":17,"x_max":1066,"o":"m 720 339 l 795 949 l 1066 949 l 966 136 l 814 0 l 136 0 l 17 136 l 117 949 l 388 949 l 313 339 l 372 271 l 644 271 l 720 339 m 608 1085 l 532 1017 l 328 1017 l 345 1153 l 497 1289 l 768 1289 l 888 1153 l 871 1017 l 667 1017 l 608 1085 z "},"ü":{"ha":1017,"x_min":17,"x_max":1066,"o":"m 720 339 l 795 949 l 1066 949 l 966 136 l 814 0 l 136 0 l 17 136 l 117 949 l 388 949 l 313 339 l 372 271 l 644 271 l 720 339 m 905 1017 l 633 1017 l 667 1289 l 938 1289 l 905 1017 m 566 1017 l 294 1017 l 328 1289 l 599 1289 l 566 1017 z "},"ý":{"ha":1017,"x_min":50,"x_max":1066,"o":"m 753 610 l 795 949 l 1066 949 l 1000 407 l 847 271 l 644 271 l 593 -136 l 356 136 l 372 271 l 169 271 l 50 407 l 117 949 l 388 949 l 347 610 l 406 543 l 677 543 l 753 610 m 396 1017 l 565 1289 l 972 1289 l 667 1017 l 396 1017 z "},"þ":{"ha":1017,"x_min":0,"x_max":1041,"o":"m 745 543 l 686 610 l 347 610 l 313 339 l 652 339 l 728 407 l 745 543 m 922 882 l 1041 746 l 975 203 l 822 68 l 279 68 l 271 0 l 0 0 l 117 949 l 388 949 l 380 882 l 922 882 z "},"ÿ":{"ha":1017,"x_min":50,"x_max":1066,"o":"m 753 610 l 795 949 l 1066 949 l 1000 407 l 847 271 l 644 271 l 593 -136 l 356 136 l 372 271 l 169 271 l 50 407 l 117 949 l 388 949 l 347 610 l 406 543 l 677 543 l 753 610 m 905 1017 l 633 1017 l 667 1289 l 938 1289 l 905 1017 m 566 1017 l 294 1017 l 328 1289 l 599 1289 l 566 1017 z "},"ı":{"ha":339,"x_min":0,"x_max":388,"o":"m 271 0 l 0 0 l 117 949 l 388 949 l 271 0 z "},"ˆ":{"ha":610,"x_min":83,"x_max":642,"o":"m 363 746 l 287 678 l 83 678 l 100 814 l 252 949 l 524 949 l 642 814 l 626 678 l 422 678 l 363 746 z "},"ˇ":{"ha":610,"x_min":100,"x_max":659,"o":"m 380 882 l 456 949 l 659 949 l 642 814 l 490 678 l 219 678 l 100 814 l 117 949 l 320 949 l 380 882 z "},"ˉ":{"ha":543,"x_min":83,"x_max":591,"o":"m 558 678 l 83 678 l 117 949 l 591 949 l 558 678 z "},"˘":{"ha":610,"x_min":100,"x_max":659,"o":"m 312 882 l 448 882 l 456 949 l 659 949 l 642 814 l 490 678 l 219 678 l 100 814 l 117 949 l 320 949 l 312 882 z "},"˙":{"ha":271,"x_min":0,"x_max":259,"o":"m 231 794 l 0 794 l 28 1025 l 259 1025 l 231 794 z "},"˚":{"ha":543,"x_min":94,"x_max":573,"o":"m 304 540 l 94 780 l 363 1020 l 573 780 l 304 540 m 328 732 l 381 780 l 339 828 l 285 780 l 328 732 z "},"˛":{"ha":407,"x_min":-25,"x_max":372,"o":"m 25 203 l 101 271 l 372 271 l 347 68 l 271 0 l 331 -68 l 306 -271 l 35 -271 l -25 -203 l 25 203 z "},"˜":{"ha":678,"x_min":83,"x_max":727,"o":"m 295 746 l 219 678 l 83 678 l 109 882 l 184 949 l 456 949 l 515 882 l 591 949 l 727 949 l 702 746 l 626 678 l 355 678 l 295 746 z "},"˝":{"ha":1085,"x_min":83,"x_max":1134,"o":"m 83 678 l 252 949 l 659 949 l 355 678 l 83 678 m 558 678 l 727 949 l 1134 949 l 829 678 l 558 678 z "},"‘":{"ha":339,"x_min":50,"x_max":388,"o":"m 83 678 l 388 949 l 321 407 l 50 407 l 83 678 z "},"’":{"ha":339,"x_min":50,"x_max":388,"o":"m 355 678 l 50 407 l 117 949 l 388 949 l 355 678 z "},"‚":{"ha":339,"x_min":50,"x_max":388,"o":"m 355 0 l 50 -271 l 117 271 l 388 271 l 355 0 z "},"“":{"ha":678,"x_min":50,"x_max":727,"o":"m 422 678 l 727 949 l 661 407 l 389 407 l 422 678 m 83 678 l 388 949 l 321 407 l 50 407 l 83 678 z "},"”":{"ha":678,"x_min":50,"x_max":727,"o":"m 355 678 l 50 407 l 117 949 l 388 949 l 355 678 m 694 678 l 389 407 l 456 949 l 727 949 l 694 678 z "},"„":{"ha":678,"x_min":50,"x_max":727,"o":"m 355 0 l 50 -271 l 117 271 l 388 271 l 355 0 m 694 0 l 389 -271 l 456 271 l 727 271 l 694 0 z "},"•":{"ha":694,"x_min":0,"x_max":606,"o":"m 540 216 l 0 216 l 66 756 l 606 756 l 540 216 z "},"‹":{"ha":678,"x_min":50,"x_max":727,"o":"m 465 475 l 644 271 l 610 0 l 407 0 l 50 407 l 66 543 l 524 949 l 727 949 l 694 678 l 465 475 z "},"›":{"ha":678,"x_min":0,"x_max":677,"o":"m 262 475 l 83 678 l 117 949 l 320 949 l 677 543 l 661 407 l 203 0 l 0 0 l 33 271 l 262 475 z "},"€":{"ha":1017,"x_min":39,"x_max":1049,"o":"m 145 631 l 168 814 l 320 949 l 930 949 l 1049 814 l 1025 610 l 745 543 l 753 610 l 694 678 l 490 678 l 437 631 l 688 631 l 671 495 l 400 495 l 395 454 l 666 454 l 650 319 l 399 319 l 440 271 l 644 271 l 720 339 l 728 407 l 991 339 l 966 136 l 814 0 l 203 0 l 85 136 l 107 319 l 39 319 l 56 454 l 123 454 l 129 495 l 61 495 l 77 631 l 145 631 z "},"™":{"ha":922,"x_min":106,"x_max":974,"o":"m 258 864 l 106 864 l 119 972 l 699 972 l 753 918 l 821 972 l 974 972 l 927 593 l 805 593 l 836 837 l 822 850 l 805 837 l 774 593 l 652 593 l 683 837 l 669 850 l 652 837 l 615 538 l 507 647 l 533 864 l 380 864 l 340 538 l 232 647 l 258 864 z "},"‰":{"ha":1221,"x_min":0,"x_max":1186,"o":"m 192 0 l 0 0 l 24 192 l 874 949 l 1066 949 l 1042 758 l 192 0 m 814 0 l 543 0 l 576 271 l 847 271 l 814 0 m 355 678 l 83 678 l 117 949 l 388 949 l 355 678 m 1153 0 l 882 0 l 915 271 l 1186 271 l 1153 0 z "},"Œ":{"ha":1695,"x_min":17,"x_max":1880,"o":"m 762 678 l 422 678 l 347 610 l 313 339 l 372 271 l 711 271 l 762 678 m 136 0 l 17 136 l 100 814 l 252 949 l 1880 949 l 1575 678 l 1033 678 l 1025 610 l 1635 610 l 1466 339 l 991 339 l 983 271 l 1525 271 l 1763 0 l 136 0 z "},"œ":{"ha":1695,"x_min":17,"x_max":1880,"o":"m 762 678 l 422 678 l 347 610 l 313 339 l 372 271 l 711 271 l 762 678 m 136 0 l 17 136 l 100 814 l 252 949 l 1880 949 l 1575 678 l 1033 678 l 1025 610 l 1635 610 l 1466 339 l 991 339 l 983 271 l 1525 271 l 1763 0 l 136 0 z "}}}
